<svg width="44" height="44" viewBox="0 0 44 44" fill="none" xmlns="http://www.w3.org/2000/svg">
<path fill-rule="evenodd" clip-rule="evenodd" d="M21.9997 1.83337C10.8622 1.83337 1.83301 10.8625 1.83301 22C1.83301 33.1375 10.8622 42.1667 21.9997 42.1667C33.1372 42.1667 42.1663 33.1375 42.1663 22C42.1663 10.8625 33.1372 1.83337 21.9997 1.83337ZM23.833 29.3334C23.833 29.8196 23.6399 30.2859 23.296 30.6297C22.9522 30.9736 22.4859 31.1667 21.9997 31.1667C21.5134 31.1667 21.0471 30.9736 20.7033 30.6297C20.3595 30.2859 20.1663 29.8196 20.1663 29.3334V23.8334H14.6663C14.1801 23.8334 13.7138 23.6402 13.37 23.2964C13.0262 22.9526 12.833 22.4863 12.833 22C12.833 21.5138 13.0262 21.0475 13.37 20.7037C13.7138 20.3599 14.1801 20.1667 14.6663 20.1667H20.1663V14.6667C20.1663 14.1805 20.3595 13.7142 20.7033 13.3703C21.0471 13.0265 21.5134 12.8334 21.9997 12.8334C22.4859 12.8334 22.9522 13.0265 23.296 13.3703C23.6399 13.7142 23.833 14.1805 23.833 14.6667V20.1667H29.333C29.8192 20.1667 30.2856 20.3599 30.6294 20.7037C30.9732 21.0475 31.1663 21.5138 31.1663 22C31.1663 22.4863 30.9732 22.9526 30.6294 23.2964C30.2856 23.6402 29.8192 23.8334 29.333 23.8334H23.833V29.3334Z" fill="#C7C7C7"/>
</svg>
