<svg width="22" height="22" viewBox="0 0 22 22" fill="none" xmlns="http://www.w3.org/2000/svg">
<path d="M21.5781 19.6566L14.7174 12.8016C15.6557 11.4833 16.2126 9.84281 16.2126 8.11445C16.2126 3.63245 12.5772 0 8.09146 0C3.60599 0.000241615 0 3.6327 0 8.11445C0 12.5964 3.63546 16.2289 8.12118 16.2289C9.88025 16.2289 11.4928 15.6724 12.8122 14.7349L19.6729 21.59C19.9367 21.8536 20.2886 22 20.6405 22C20.9923 22 21.3442 21.8536 21.608 21.59C22.1355 21.0335 22.1355 20.1839 21.5785 19.6564L21.5781 19.6566ZM2.69662 8.11463C2.69662 5.12661 5.13018 2.72432 8.0914 2.72432C11.0526 2.72456 13.5154 5.12661 13.5154 8.11463C13.5154 11.1027 11.0818 13.5049 8.12062 13.5049C5.15941 13.5049 2.69662 11.0734 2.69662 8.11463Z" fill="white"/>
</svg>
